# xmcd
#
# Track frame offsets:
#	182
#	7340
#	18742
#	31567
#	44072
#	53537
#	63212
#	73212
#	85677
#	97205
#	110667
#	121387
#	129415
#	138520
#	153600
#	166142
#	182270
#	193997
#	204845
#	217475
#	228860
#	239540
#	247947
#	258485
#
# Disc length: 3604 seconds
#
# Revision: 2
# Processed by: cddbd v1.4PL0 Copyright (c) Steve Scherf et al.
# Submitted via: MusicWizard 6.0.2
#
DISCID=5c0e1218
DTITLE=Peggy Lee - I Like Men! - Sugar 'N' Spice
DYEAR=1900
DGENRE=Vocal
TTITLE0=Charley, My Boy
TTITLE1=Good For Nothin' Joe
TTITLE2=I Love To Love
TTITLE3=When A Woman Loves A Man
TTITLE4=I Like Men!
TTITLE5=I'm Just Wild About Harry
TTITLE6=My Man
TTITLE7=Bill
TTITLE8=So In Love
TTITLE9=Jim
TTITLE10=It's So Nice To Have A Man Around The House
TTITLE11=Oh Johnny, Oh Johnny, Oh
TTITLE12=Ain't That Love
TTITLE13=The Best Is Yet To Come
TTITLE14=I Believe In You
TTITLE15=Embrasse Moi
TTITLE16=See See Rider
TTITLE17=Teach Me Tonight
TTITLE18=When The Sun Comes Out
TTITLE19=Tell All The World About You
TTITLE20=I Don't Wanna Leave You Now
TTITLE21=The Sweetest Sounds
TTITLE22=I've Got The World On A String
TTITLE23=Big Bad Bill (Is Sweet William Now)
EXTD=
EXTT0=
EXTT1=
EXTT2=
EXTT3=
EXTT4=
EXTT5=
EXTT6=
EXTT7=
EXTT8=
EXTT9=
EXTT10=
EXTT11=
EXTT12=
EXTT13=
EXTT14=
EXTT15=
EXTT16=
EXTT17=
EXTT18=
EXTT19=
EXTT20=
EXTT21=
EXTT22=
EXTT23=
PLAYORDER=
